<svg width="40" height="40" fill="none" xmlns="http://www.w3.org/2000/svg"><path d="M37.74 25.63H2.26A2.23 2.23 0 0 0 0 27.8v1.78c0 1.16 1 2.12 2.26 2.12h.52v.51a5.12 5.12 0 0 0 5.2 5.02h24.04c2.89 0 5.2-2.28 5.2-5.02v-.5h.52c1.21 0 2.26-.97 2.26-2.18v-1.78c0-1.11-1-2.12-2.26-2.12ZM35.7 32.2c0 1.93-1.63 3.5-3.63 3.5H7.93c-2 0-3.63-1.57-3.63-3.5v-.5h31.4v.5Zm2.73-2.68c0 .35-.32.65-.69.65H2.26a.68.68 0 0 1-.69-.65v-1.78c0-.3.32-.6.69-.6H37.8c.36 0 .68.3.68.65v1.73h-.05ZM8.5 21.52l2.84 2.03 2.89-2.03 2.88 2.03L20 21.52l2.83 2.03 2.9-2.03 2.88 2.03 2.89-2.03 2.88 2.03 3.31-2.38-.9-1.22-2.4 1.67-2.9-2.02-2.88 2.02-2.89-2.02-2.89 2.02L20 19.6l-2.89 2.02-2.88-2.02-2.9 2.02L8.5 19.6l-2.88 2.02-2.42-1.67-.94 1.22 3.36 2.38 2.88-2.03ZM37.49 18.53c0-.3.05-1.32 0-1.52-.37-7.9-7.93-14.23-17.22-14.23C10.97 2.78 3.37 9.1 3 17v1.52h34.49ZM20.27 4.29c8.4 0 15.33 5.68 15.64 12.72H4.57c.37-7.04 7.3-12.72 15.7-12.72Z" fill="#81B3D2"/><path d="M20 10.94c.58 0 1.05-.46 1.05-1.02S20.58 8.91 20 8.91c-.58 0-1.05.45-1.05 1.01s.47 1.02 1.05 1.02ZM15.8 8.45c.58 0 1.05-.45 1.05-1 0-.57-.47-1.02-1.05-1.02-.58 0-1.05.45-1.05 1.01s.47 1.01 1.05 1.01ZM24.2 8.45c.58 0 1.05-.45 1.05-1 0-.57-.47-1.02-1.05-1.02-.58 0-1.05.45-1.05 1.01s.47 1.01 1.05 1.01Z" fill="#81B3D2"/></svg>